<svg xmlns="http://www.w3.org/2000/svg" width="512" height="512" viewBox="0 0 512 512">
  <!-- Rounded rectangle background -->
  <rect width="512" height="512" rx="102" ry="102" fill="#0f172a"/>

  <!-- Telescope icon - scaled and centered -->
  <g transform="translate(64, 64)" fill="none" stroke="#e5a855" stroke-width="16" stroke-linecap="round" stroke-linejoin="round">
    <path d="M160.8 199.9L62.1 220.9a14.9 14.9 0 0 1-17.7-11.2l-8.6-34.4a17.1 17.1 0 0 1 11.1-20.2L263.1 84"/>
    <path d="M216.8 188L286.1 173.2"/>
    <path d="M256 336L206.3 236.6"/>
    <path d="M263.8 95a32 32 0 0 1 23.3-38.8l17.4-4.4a16 16 0 0 1 19.4 11.6l24.2 97a16 16 0 0 1-11.6 19.4l-17.4 4.4a32 32 0 0 1-38.8-23.3z"/>
    <path d="M98.5 138.1L116.3 209.4"/>
    <path d="M128 336L177.7 236.6"/>
    <circle cx="192" cy="208" r="32"/>
  </g>
</svg>
